# xmcd
#
# Track frame offsets:
#	182
#	36670
#	62057
#	86247
#	135745
#	171610
#	193272
#	230135
#	255110
#	271955
#	284252
#
# Disc length: 4104 seconds
#
# Revision: 2
# Processed by: cddbd v1.5PL3 Copyright (c) Steve Scherf et al.
# Submitted via: audiograbber 1.83.01
#
DISCID=ad10060b
DTITLE=Various Artisits - Blue Ballads
DYEAR=1900
DGENRE=Jazz
TTITLE0=Stanley Turrentine - A Child Is Born
TTITLE1=Lee Morgan - Since I fell For You
TTITLE2=Dexter Gordon - Guess I'll Hang My Tears Out To Dry
TTITLE3=Cannonball Adderley - Autumn Leaves
TTITLE4=John Coltrane - I'm Old Fashioned
TTITLE5=Freddie Hubbard - Cry Me Not
TTITLE6=Bobby Hutcherson - Bouquet
TTITLE7=Joe Henderson w Pete LaRoca - Lazy Afternoon
TTITLE8=Clifford Brown - Easy Living
TTITLE9=Ike Quebec - Nature Boy
TTITLE10=McCoy Tyner - You Taught My Heart To Sing
EXTD=
EXTT0=
EXTT1=
EXTT2=
EXTT3=
EXTT4=
EXTT5=
EXTT6=
EXTT7=
EXTT8=
EXTT9=
EXTT10=
PLAYORDER=
